# Blender 4.0.2
# www.blender.org
mtllib simple_pyramid.mtl
o Cone
v 0.010000 -0.746104 -1.010000
v 0.876025 -0.746104 0.490000
v -0.856025 -0.746104 0.490000
v 0.010000 0.766104 -0.010000
vn 0.8222 0.3139 -0.4747
vn -0.0000 -1.0000 -0.0000
vn -0.0000 0.3139 0.9494
vn -0.8222 0.3139 -0.4747
vt 0.250000 0.490000
vt 0.250000 0.250000
vt 0.457846 0.130000
vt 0.750000 0.490000
vt 0.957846 0.130000
vt 0.542154 0.130000
vt 0.042154 0.130000
s 0
f 1/1/1 4/2/1 2/3/1
f 1/4/2 2/5/2 3/6/2
f 2/3/3 4/2/3 3/7/3
f 3/7/4 4/2/4 1/1/4
